<svg width="66" height="66" viewBox="0 0 66 66" fill="none" xmlns="http://www.w3.org/2000/svg">
<g filter="url(#filter0_d_147_686)">
<path d="M48.0074 14H24.0049C21.8819 14 19.8458 14.8431 18.3446 16.3439C16.8434 17.8446 16 19.8801 16 22.0025V54H48.0074C50.1283 53.9967 52.1612 53.1522 53.6598 51.6518C55.1583 50.1514 56 48.1178 56 45.9975V22.0025C56 19.8822 55.1583 17.8486 53.6598 16.3482C52.1612 14.8478 50.1283 14.0033 48.0074 14V14Z" fill="#3374C8"/>
<path fill-rule="evenodd" clip-rule="evenodd" d="M28 25.4829C28 23.2726 30.2189 21.666 32.6602 22.062C34.2434 22.3189 35.3203 23.0575 36 24.0451C36.6797 23.0575 37.7566 22.3189 39.3398 22.062C41.7811 21.666 44 23.2726 44 25.4829C44 26.4241 43.458 27.3503 42.3994 28H47C47.5523 28 48 28.4477 48 29V31C48 31.5523 47.5523 32 47 32H25C24.4477 32 24 31.5523 24 31V29C24 28.4477 24.4477 28 25 28H29.6006C28.542 27.3503 28 26.4241 28 25.4829ZM32.3398 24.0362C30.8355 23.7921 30 24.7726 30 25.4829C30 25.5991 30.0729 26.0261 30.8793 26.4232C31.6049 26.7805 32.8714 27.0723 34.9506 26.9841C34.8848 26.4095 34.7466 25.8696 34.498 25.4157C34.1504 24.7813 33.5445 24.2317 32.3398 24.0362ZM26 34H35V46H27C26.4477 46 26 45.5523 26 45V34ZM46 34H37V46H45C45.5523 46 46 45.5523 46 45V34ZM42 25.4829C42 24.7726 41.1645 23.7921 39.6602 24.0362C38.4555 24.2317 37.8496 24.7813 37.502 25.4157C37.2534 25.8696 37.1152 26.4095 37.0494 26.9841C39.1286 27.0723 40.3951 26.7805 41.1207 26.4232C41.9271 26.0261 42 25.5991 42 25.4829Z" fill="white"/>
</g>
<defs>
<filter id="filter0_d_147_686" x="0" y="0" width="66" height="66" filterUnits="userSpaceOnUse" color-interpolation-filters="sRGB">
<feFlood flood-opacity="0" result="BackgroundImageFix"/>
<feColorMatrix in="SourceAlpha" type="matrix" values="0 0 0 0 0 0 0 0 0 0 0 0 0 0 0 0 0 0 127 0" result="hardAlpha"/>
<feOffset dy="2"/>
<feGaussianBlur stdDeviation="8"/>
<feColorMatrix type="matrix" values="0 0 0 0 0 0 0 0 0 0 0 0 0 0 0 0 0 0 0.15 0"/>
<feBlend mode="normal" in2="BackgroundImageFix" result="effect1_dropShadow_147_686"/>
<feBlend mode="normal" in="SourceGraphic" in2="effect1_dropShadow_147_686" result="shape"/>
</filter>
</defs>
</svg>


