<svg width="15" height="15" viewBox="0 0 15 15" fill="none" xmlns="http://www.w3.org/2000/svg">
<path fill-rule="evenodd" clip-rule="evenodd" d="M8.97938 9.1225L8.45675 9.51504C7.64607 10.14 6.80524 10.4454 5.71429 10.4286C3.18955 10.4286 1.14286 8.38192 1.14286 5.85714C1.14286 3.33236 3.18955 1.28571 5.71429 1.28571C8.23902 1.28571 10.2857 3.33236 10.2857 5.85714C10.3026 6.94816 9.99724 7.78895 9.37221 8.59957L8.97938 9.1225ZM12.9062 14.1919L9.14311 10.4288C8.18802 11.1462 7.0008 11.5714 5.71429 11.5714C2.55837 11.5714 0 9.01311 0 5.85714C0 2.70117 2.55837 0.142853 5.71429 0.142853C8.8702 0.142853 11.4286 2.70117 11.4286 5.85714C11.4286 7.14369 11.0034 8.33091 10.286 9.28599L14.049 13.049L14.8571 13.8571L14.5224 14.1919L14.049 14.6653L13.7143 15L12.9062 14.1919Z" fill="#8E8E93"/>
</svg>
