<svg width="24" height="24" viewBox="0 0 24 24" fill="none" xmlns="http://www.w3.org/2000/svg">
<path fill-rule="evenodd" clip-rule="evenodd" d="M12.0041 1C11.3373 1 10.7716 1.17494 10.3139 1.48259C9.86409 1.78499 9.57247 2.17904 9.38547 2.54089C9.19993 2.89991 9.10641 3.24756 9.05806 3.49781C9.04845 3.54755 9.04045 3.59438 9.03378 3.63777C8.3001 3.98621 7.66532 4.46156 7.12192 5.02379C5.97417 6.21134 5.26505 7.75103 4.81927 9.20729C4.37091 10.672 4.16799 12.1219 4.07567 13.1956C4.02928 13.735 4.0103 14.1858 4.00294 14.5043C4.00029 14.619 3.99915 14.7168 3.99878 14.7955C3.9655 14.8732 3.92402 14.9709 3.87716 15.0829C3.7569 15.3705 3.59895 15.7581 3.45246 16.1493C3.30957 16.5309 3.16363 16.9524 3.08033 17.2949C3.04248 17.4505 2.99608 17.6724 3.00026 17.8903C3.00212 17.9873 3.01389 18.2117 3.14041 18.4442C3.21126 18.5744 3.3277 18.7242 3.50983 18.8385C3.69614 18.9554 3.89542 19 4.07329 19H4.07576H4.07857H4.08171H4.08518H4.08898H4.09311H4.09756H4.10235H4.10745H4.11288H4.11863H4.12471H4.1311H4.13781H4.14483H4.15218H4.15983H4.1678H4.17608H4.18467H4.19357H4.20277H4.21229H4.2221H4.23222H4.24265H4.25337H4.2644H4.27572H4.28734H4.29925H4.31146H4.32397H4.33676H4.34985H4.36322H4.37688H4.39083H4.40507H4.41958H4.43438H4.44947H4.46483H4.48047H4.49639H4.51258H4.52905H4.5458H4.56281H4.5801H4.59765H4.61548H4.63357H4.65193H4.67055H4.68943H4.70858H4.72798H4.74765H4.76757H4.78775H4.80819H4.82888H4.84982H4.87101H4.89246H4.91415H4.93609H4.95828H4.98071H5.00338H5.0263H5.04945H5.07285H5.09648H5.12036H5.14446H5.16881H5.19338H5.21819H5.24322H5.26849H5.29398H5.3197H5.34565H5.37182H5.39821H5.42482H5.45166H5.47871H5.50598H5.53346H5.56116H5.58908H5.6172H5.64554H5.67409H5.70284H5.7318H5.76097H5.79034H5.81991H5.84969H5.87966H5.90984H5.94021H5.97078H6.00154H6.0325H6.06365H6.09499H6.12653H6.15825H6.19015H6.22225H6.25453H6.28699H6.31963H6.35246H6.38546H6.41864H6.452H6.48554H6.51924H6.55313H6.58718H6.6214H6.65579H6.69035H6.72508H6.75997H6.79503H6.83025H6.86562H6.90116H6.93686H6.97272H7.00873H7.04489H7.08121H7.11768H7.1543H7.19107H7.22799H7.26506H7.30227H7.33962H7.37712H7.41476H7.45254H7.49046H7.52851H7.56671H7.60503H7.6435H7.68209H7.72081H7.75967H7.79865H7.83776H7.877H7.91636H7.95584H7.99545H8.03518H8.07502H8.11499H8.13866C8.42547 20.1848 9.30441 22.0002 11.998 22.0002C14.6916 22.0002 15.5721 20.1848 15.86 19H15.8997H15.9397H15.9795H16.0191H16.0587H16.0981H16.1375H16.1766H16.2157H16.2546H16.2934H16.3321H16.3707H16.4091H16.4474H16.4855H16.5235H16.5614H16.5991H16.6367H16.6741H16.7114H16.7486H16.7856H16.8225H16.8592H16.8957H16.9322H16.9684H17.0045H17.0405H17.0763H17.1119H17.1474H17.1827H17.2179H17.2529H17.2877H17.3224H17.3569H17.3912H17.4254H17.4593H17.4932H17.5268H17.5603H17.5936H17.6267H17.6596H17.6924H17.725H17.7573H17.7896H17.8216H17.8534H17.8851H17.9165H17.9478H17.9789H18.0098H18.0405H18.071H18.1013H18.1314H18.1613H18.191H18.2205H18.2498H18.2788H18.3077H18.3364H18.3649H18.3931H18.4212H18.449H18.4766H18.504H18.5312H18.5582H18.5849H18.6115H18.6378H18.6639H18.6897H18.7154H18.7408H18.766H18.7909H18.8156H18.8401H18.8644H18.8884H18.9122H18.9357H18.959H18.9821H19.0049H19.0275H19.0499H19.0719H19.0938H19.1154H19.1367H19.1578H19.1787H19.1993H19.2196H19.2397H19.2595H19.2791H19.2984H19.3175H19.3363H19.3548H19.373H19.391H19.4088H19.4262H19.4434H19.4603H19.477H19.4933H19.5094H19.5252H19.5408H19.556H19.571H19.5857H19.6001H19.6142H19.6281H19.6416H19.6549H19.6679H19.6806H19.693H19.7051H19.7169H19.7284H19.7396H19.7505H19.7611H19.7714H19.7814H19.7911H19.8005H19.8096H19.8184H19.8269H19.8351H19.8429H19.8504H19.8577H19.8646H19.8712H19.8774H19.8834H19.889H19.8943H19.8993H19.904H19.9083H19.9123H19.916H19.9194H19.9224H19.9251C20.3091 19 20.6446 18.7999 20.8345 18.4946C20.9804 18.2601 21.0021 18.0271 21.0074 17.9205C21.0188 17.69 20.972 17.4579 20.9348 17.3008C20.8523 16.9525 20.7034 16.5268 20.5583 16.1448C20.4091 15.7522 20.2474 15.3635 20.1241 15.0755C20.0753 14.9612 20.0321 14.8619 19.9976 14.7834C19.9961 14.7043 19.9934 14.6056 19.9891 14.4895C19.977 14.1715 19.9516 13.7213 19.8981 13.1825C19.7917 12.11 19.5717 10.6623 19.1125 9.20032C18.4572 7.11413 17.2275 4.77555 14.97 3.66049C14.963 3.61197 14.9543 3.55886 14.9436 3.50194C14.8963 3.25157 14.8042 2.90353 14.62 2.54395C14.4342 2.18149 14.1437 1.7865 13.694 1.48335C13.2366 1.17494 12.6709 1 12.0041 1ZM11.9992 5C10.4699 5 9.37946 5.56586 8.56003 6.41371C7.7144 7.28866 7.1277 8.49897 6.73167 9.79271C6.33822 11.078 6.15334 12.3781 6.06831 13.3669C6.02603 13.8587 6.00895 14.2673 6.00241 14.5504C5.99914 14.6919 5.99851 14.8016 5.99866 14.8744C5.99874 14.9108 5.99901 14.9379 5.99924 14.955L5.99953 14.9732L5.99958 14.9759L5.99959 14.9765L5.99959 14.9765L5.9996 14.9767L6.00494 15.1988L5.91516 15.4028L5.91509 15.4029L5.91455 15.4042L5.91209 15.4098L5.9019 15.4331L5.86234 15.5245C5.82818 15.6038 5.77954 15.7177 5.7223 15.8546C5.60732 16.1295 5.45982 16.4919 5.32545 16.8507C5.30651 16.9013 5.28809 16.9511 5.27026 17H5.29398H5.3197H5.34565H5.37182H5.39821H5.42482H5.45166H5.47871H5.50598H5.53346H5.56116H5.58908H5.6172H5.64554H5.67409H5.70284H5.7318H5.76097H5.79034H5.81991H5.84969H5.87966H5.90984H5.94021H5.97078H6.00154H6.0325H6.06365H6.09499H6.12653H6.15825H6.19015H6.22225H6.25453H6.28699H6.31963H6.35246H6.38546H6.41864H6.452H6.48554H6.51924H6.55313H6.58718H6.6214H6.65579H6.69035H6.72508H6.75997H6.79503H6.83025H6.86562H6.90116H6.93686H6.97272H7.00873H7.04489H7.08121H7.11768H7.1543H7.19107H7.22799H7.26506H7.30227H7.33962H7.37712H7.41476H7.45254H7.49046H7.52851H7.56671H7.60503H7.6435H7.68209H7.72081H7.75967H7.79865H7.83776H7.877H7.91636H7.95584H7.99545H8.03518H8.07502H8.11499H8.15507H8.19526H8.23557H8.276H8.31653H8.35717H8.39793H8.43879H8.47976H8.52083H8.56201H8.60328H8.64466H8.68614H8.72772H8.76939H8.81116H8.85303H8.89499H8.93704H8.97918H9.02141H9.06373H9.10613H9.14862H9.19119H9.23385H9.27659H9.31941H9.3623H9.40528H9.44833H9.49146H9.53466H9.57793H9.62127H9.66468H9.70816H9.75171H9.79532H9.839H9.88274H9.92655H9.97041H10.0143H10.0583H10.1023H10.1464H10.1906H10.2348H10.279H10.3233H10.3677H10.4121H10.4565H10.501H10.5455H10.5901H10.6347H10.6794H10.7241H10.7688H10.8136H10.8584H10.9032H10.9481H10.993H11.0379H11.0828H11.1278H11.1728H11.2179H11.2629H11.308H11.3531H11.3982H11.4433H11.4884H11.5336H11.5788H11.624H11.6692H11.7144H11.7596H11.8048H11.85H11.8952H11.9405H11.9857H12.0309H12.0762H12.1214H12.1666H12.2119H12.2571H12.3023H12.3475H12.3927H12.4379H12.483H12.5282H12.5733H12.6184H12.6635H12.7086H12.7537H12.7987H12.8438H12.8888H12.9337H12.9787H13.0236H13.0685H13.1133H13.1581H13.2029H13.2477H13.2924H13.3371H13.3817H13.4263H13.4709H13.5154H13.5598H13.6043H13.6487H13.693H13.7373H13.7815H13.8257H13.8698H13.9139H13.9579H14.0019H14.0458H14.0896H14.1334H14.1771H14.2207H14.2643H14.3079H14.3513H14.3947H14.438H14.4813H14.5244H14.5675H14.6106H14.6535H14.6964H14.7392H14.7819H14.8245H14.867H14.9095H14.9519H14.9941H15.0363H15.0785H15.1205H15.1624H15.2042H15.246H15.2876H15.3291H15.3706H15.4119H15.4532H15.4943H15.5353H15.5763H15.6171H15.6578H15.6984H15.7389H15.7793H15.8195H15.8597H15.8997H15.9397H15.9795H16.0191H16.0587H16.0981H16.1375H16.1766H16.2157H16.2546H16.2934H16.3321H16.3707H16.4091H16.4474H16.4855H16.5235H16.5614H16.5991H16.6367H16.6741H16.7114H16.7486H16.7856H16.8225H16.8592H16.8957H16.9322H16.9684H17.0045H17.0405H17.0763H17.1119H17.1474H17.1827H17.2179H17.2529H17.2877H17.3224H17.3569H17.3912H17.4254H17.4593H17.4932H17.5268H17.5603H17.5936H17.6267H17.6596H17.6924H17.725H17.7573H17.7896H17.8216H17.8534H17.8851H17.9165H17.9478H17.9789H18.0098H18.0405H18.071H18.1013H18.1314H18.1613H18.191H18.2205H18.2498H18.2788H18.3077H18.3364H18.3649H18.3931H18.4212H18.449H18.4766H18.504H18.5312H18.5582H18.5849H18.6115H18.6378H18.6639H18.6897H18.7154H18.7408H18.743C18.7255 16.9526 18.7074 16.9043 18.6887 16.8552C18.5529 16.4978 18.4027 16.1365 18.2853 15.862C18.2269 15.7255 18.1772 15.6118 18.1423 15.5327L18.1019 15.4417L18.0915 15.4184L18.089 15.4129L18.0884 15.4117L18.0884 15.4116L18.0883 15.4115L17.998 15.2114L17.9998 14.9926L17.9998 14.9923L17.9998 14.9923L17.9998 14.9918L17.9998 14.989L17.9998 14.9707C17.9998 14.9534 17.9996 14.9262 17.9991 14.8898C17.9981 14.8168 17.9958 14.7068 17.9905 14.5652C17.9797 14.2816 17.9568 13.8724 17.9079 13.38C17.8097 12.39 17.609 11.0877 17.2044 9.79968C16.376 7.16224 14.8563 5 11.9992 5Z" fill="white"/>
</svg>
