<svg width="24" height="24" viewBox="0 0 24 24" fill="none" xmlns="http://www.w3.org/2000/svg">
<mask id="path-1-inside-1_35_323" fill="white">
<path fill-rule="evenodd" clip-rule="evenodd" d="M2.72723 7.65003C2.26671 8.02996 2 8.59576 2 9.19277V20C2 21.1046 2.89543 22 4 22H9V16H15V22H20C21.1046 22 22 21.1046 22 20V9.19277C22 8.59576 21.7333 8.02996 21.2728 7.65003L13.2728 1.05003C12.5338 0.440356 11.4662 0.440355 10.7272 1.05003L2.72723 7.65003Z"/>
</mask>
<path fill-rule="evenodd" clip-rule="evenodd" d="M2.72723 7.65003C2.26671 8.02996 2 8.59576 2 9.19277V20C2 21.1046 2.89543 22 4 22H9V16H15V22H20C21.1046 22 22 21.1046 22 20V9.19277C22 8.59576 21.7333 8.02996 21.2728 7.65003L13.2728 1.05003C12.5338 0.440356 11.4662 0.440355 10.7272 1.05003L2.72723 7.65003Z" fill="#004790"/>
<path d="M2.72723 7.65003L1.45447 6.10728H1.45447L2.72723 7.65003ZM9 22V24H11V22H9ZM9 16V14H7V16H9ZM15 16H17V14H15V16ZM15 22H13V24H15V22ZM21.2728 7.65003L22.5455 6.10728V6.10728L21.2728 7.65003ZM13.2728 1.05003L14.5455 -0.492719V-0.492719L13.2728 1.05003ZM10.7272 1.05003L9.45447 -0.49272L9.45447 -0.49272L10.7272 1.05003ZM4 9.19277L4 9.19277L1.45447 6.10728C0.533424 6.86714 0 7.99874 0 9.19277H4ZM4 20V9.19277H0V20H4ZM4 20H4H0C0 22.2091 1.79086 24 4 24V20ZM9 20H4V24H9V20ZM11 22V16H7V22H11ZM9 18H15V14H9V18ZM13 16V22H17V16H13ZM20 20H15V24H20V20ZM20 20V24C22.2091 24 24 22.2091 24 20H20ZM20 9.19277V20H24V9.19277H20ZM20 9.19277V9.19277H24C24 7.99874 23.4666 6.86714 22.5455 6.10728L20 9.19277ZM12 2.59277L20 9.19277L22.5455 6.10728L14.5455 -0.492719L12 2.59277ZM12 2.59277L12 2.59277L14.5455 -0.492719C13.0675 -1.71206 10.9325 -1.71206 9.45447 -0.49272L12 2.59277ZM4 9.19277L12 2.59277L9.45447 -0.49272L1.45447 6.10728L4 9.19277Z" fill="#004790" mask="url(#path-1-inside-1_35_323)"/>
</svg>
