<svg width="24" height="24" viewBox="0 0 24 24" fill="none" xmlns="http://www.w3.org/2000/svg">
<path fill-rule="evenodd" clip-rule="evenodd" d="M2.99698 15C1.33869 15 0 13.6625 0 12C0 10.3438 1.33869 9 2.99698 9C4.66131 9 6 10.3438 6 12C6 13.6625 4.66131 15 2.99698 15ZM12.003 15C10.3447 15 9 13.6625 9 12C9 10.3438 10.3447 9 12.003 9C13.6613 9 15 10.3438 15 12C15 13.6625 13.6613 15 12.003 15ZM18 12C18 13.6625 19.3434 15 21 15C22.6627 15 24 13.6625 24 12C24 10.3438 22.6566 9 21 9C19.3373 9 18 10.3438 18 12Z" fill="#004790"/>
</svg>
