<svg width="24" height="24" viewBox="0 0 24 24" fill="none" xmlns="http://www.w3.org/2000/svg">
<path d="M1 11C0.447715 11 0 11.4477 0 12C0 12.5523 0.447715 13 1 13V11ZM1 13H4V11H1V13Z" fill="white"/>
<path fill-rule="evenodd" clip-rule="evenodd" d="M8.00247 2H20.0037C21.0642 2.00164 22.0806 2.42392 22.8299 3.17412C23.5792 3.92432 24 4.94111 24 6.00124V17.9988C24 19.0589 23.5792 20.0757 22.8299 20.8259C22.0806 21.5761 21.0642 21.9984 20.0037 22H4V13H12.5858L9.29289 16.2929C8.90237 16.6834 8.90237 17.3166 9.29289 17.7071C9.68342 18.0976 10.3166 18.0976 10.7071 17.7071L15.7071 12.7071C16.0976 12.3166 16.0976 11.6834 15.7071 11.2929L10.7071 6.29289C10.3166 5.90237 9.68342 5.90237 9.29289 6.29289C8.90237 6.68342 8.90237 7.31658 9.29289 7.70711L12.5858 11H4V6.00124C4 4.94004 4.42169 3.92231 5.1723 3.17193C5.92291 2.42156 6.94095 2 8.00247 2Z" fill="white"/>
</svg>
