<svg width="24" height="24" viewBox="0 0 24 24" fill="none" xmlns="http://www.w3.org/2000/svg">
<path fill-rule="evenodd" clip-rule="evenodd" d="M7 6.91268C7 4.11005 9.24117 1.83331 12 1.83331C14.7588 1.83331 17 4.11005 17 6.91268C17 7.47217 16.9107 8.0107 16.7458 8.51434C16.048 10.7924 14.057 12.9419 12.5818 14.5344C12.3762 14.7564 12.1807 14.9675 12 15.1666C11.6908 14.7771 11.307 14.3417 10.8904 13.8692L10.8904 13.8692C9.71012 12.5304 8.26692 10.8933 7.51357 9.15544C7.18479 8.47885 7 7.71744 7 6.91268ZM12 3.49997C10.6206 3.49997 9.5 4.62056 9.5 5.99997C9.5 7.37939 10.6206 8.49997 12 8.49997C13.3794 8.49997 14.5 7.37939 14.5 5.99997C14.5 4.62056 13.3794 3.49997 12 3.49997Z" fill="white"/>
<path d="M7.76923 14H4.2012C3.79948 14 3.43676 14.2404 3.28023 14.6104L1.58792 18.6104C1.30897 19.2697 1.79298 20 2.50889 20H21.4911C22.207 20 22.691 19.2697 22.4121 18.6104L20.7198 14.6104C20.5632 14.2404 20.2005 14 19.7988 14H16.2308" stroke="white" stroke-width="2" stroke-linecap="round" stroke-linejoin="round"/>
</svg>
